<?xml version="1.0" standalone="no"?>
<!DOCTYPE svg PUBLIC "-//W3C//DTD SVG 20010904//EN"
 "http://www.w3.org/TR/2001/REC-SVG-20010904/DTD/svg10.dtd">
<svg version="1.0" xmlns="http://www.w3.org/2000/svg"
 width="500.000000pt" height="500.000000pt" viewBox="0 0 500.000000 500.000000"
 preserveAspectRatio="xMidYMid meet">
<metadata>
Created by potrace 1.16, written by Peter Selinger 2001-2019
</metadata>
<g transform="translate(0.000000,500.000000) scale(0.100000,-0.100000)"
fill="#000000" stroke="none">
<path d="M2145 4263 c-183 -22 -360 -70 -525 -143 -111 -49 -301 -161 -419
-247 -153 -111 -540 -508 -568 -583 -4 -8 -31 -52 -62 -98 -99 -147 -120 -184
-202 -347 -121 -241 -156 -347 -199 -595 -19 -106 -12 -283 15 -419 29 -143
34 -157 86 -263 104 -210 359 -456 550 -530 257 -99 380 -123 599 -115 213 8
429 50 722 142 94 30 374 167 484 238 298 191 378 254 579 457 169 170 283
303 331 387 15 26 51 80 80 118 69 93 321 477 354 540 15 27 66 111 113 185
145 228 265 424 299 489 18 33 89 154 158 267 175 288 250 415 250 424 0 7
-507 20 -750 20 l-135 -1 -174 -263 c-96 -145 -182 -280 -192 -301 -10 -20
-29 -52 -43 -70 -14 -17 -83 -119 -155 -226 -72 -107 -147 -216 -166 -244 -20
-27 -42 -63 -49 -80 -13 -29 -86 -135 -296 -431 -58 -82 -117 -169 -131 -194
-15 -25 -37 -56 -51 -70 -13 -14 -57 -68 -98 -120 -233 -300 -420 -488 -661
-664 -85 -61 -241 -126 -368 -152 -169 -34 -308 2 -412 106 -49 49 -93 146
-125 272 -21 87 -29 312 -15 423 13 99 70 329 103 415 37 97 218 447 277 537
32 49 76 120 99 160 91 161 252 345 377 431 181 124 308 175 435 176 162 2
231 -53 383 -306 26 -42 52 -89 58 -105 9 -25 119 -287 154 -368 7 -16 21 -56
31 -87 10 -32 21 -58 25 -58 4 0 29 28 56 62 26 35 67 85 91 111 23 27 54 67
69 89 34 55 196 263 241 310 l35 37 -18 48 c-49 131 -121 240 -220 336 -168
163 -364 255 -620 292 -90 13 -322 18 -400 8z"/>
<path d="M3684 2139 c-71 -85 -138 -167 -149 -184 -10 -16 -44 -57 -75 -90
-31 -33 -80 -88 -109 -123 l-53 -62 32 -93 c41 -116 50 -137 116 -272 57 -119
98 -168 182 -222 84 -54 281 -114 437 -132 199 -24 321 -9 504 60 122 47 171
78 264 168 l67 65 0 80 c0 75 -1 78 -17 64 -74 -66 -352 -101 -484 -62 -143
43 -248 124 -323 251 -59 100 -102 209 -189 477 l-74 228 -129 -153z"/>
</g>
</svg>
